


 
http://www.imdb.com/title/tt1588173/


With much of the world's population now an undead horde, R is a young and introspective zombie. While fighting with and feeding on a human scavenger party, R meets Julie and feels an urge to protect her. What happens next is the beginning of a strangely warm relationship that allows R to begin regaining his humanity. As this change spreads through the local undead population like a virus, Julie and R eventually have to face a larger issue when the very nature of their friendship is challenged. Caught between the paranoid human forces and the ferocious "Bonies", zombies who are a mutual threat, R and Julie must find a way common bond bridge the differences each sides must overcome so that they all fight for a better world no one thought possible. 



Director:
 Jonathan Levine 

Writers:
 Jonathan Levine (screenplay), Isaac Marion (novel) 

Stars:
 Nicholas Hoult, Teresa Palmer, Analeigh Tipton

Genres:
  Comedy |  Horror |  Romance 

Country:
 USA 

Language:
 English 



Format                                   : AVI
Format/Info                              : Audio Video Interleave
File size                                : 1.32 GiB
Duration                                 : 1h 37mn
Overall bit rate                         : 1 940 Kbps
Writing application                      : VirtualDubMod 1.5.10.2 (build 2540/release)
Writing library                          : VirtualDubMod build 2540/release

Video
ID                                       : 0
Format                                   : MPEG-4 Visual
Format profile                           : Advanced Simple@L5
Format settings, BVOP                    : 2
Format settings, QPel                    : No
Format settings, GMC                     : No warppoints
Format settings, Matrix                  : Default (H.263)
Muxing mode                              : Packed bitstream
Codec ID                                 : XVID
Codec ID/Hint                            : XviD
Duration                                 : 1h 37mn
Bit rate                                 : 1 547 Kbps
Width                                    : 720 pixels
Height                                   : 304 pixels
Display aspect ratio                     : 2.40:1
Original display aspect ratio            : 2.35:1
Frame rate                               : 23.976 fps
Color space                              : YUV
Chroma subsampling                       : 4:2:0
Bit depth                                : 8 bits
Scan type                                : Progressive
Compression mode                         : Lossy
Bits/(Pixel*Frame)                       : 0.295
Stream size                              : 1.06 GiB (80%)
Writing library                          : XviD 64

Audio
ID                                       : 1
Format                                   : AC-3
Format/Info                              : Audio Coding 3
Mode extension                           : CM (complete main)
Format settings, Endianness              : Big
Codec ID                                 : 2000
Duration                                 : 1h 37mn
Bit rate mode                            : Constant
Bit rate                                 : 384 Kbps
Channel(s)                               : 6 channels
Channel positions                        : Front: L C R, Side: L R, LFE
Sampling rate                            : 48.0 KHz
Bit depth                                : 16 bits
Compression mode                         : Lossy
Stream size                              : 269 MiB (20%)
Alignment                                : Split accross interleaves
Interleave, duration                     : 42 ms (1.00 video frame)
Interleave, preload duration             : 500 ms




Screens:


    	http://addpix.net/viewer.php?file=96959743081179095744.jpg
    	http://addpix.net/viewer.php?file=64042918050328509024.jpg
    	http://addpix.net/viewer.php?file=78331100249578250366.jpg
    	http://addpix.net/viewer.php?file=57784872008096484194.jpg
    	http://addpix.net/viewer.php?file=32330362277929941939.jpg
    	http://addpix.net/viewer.php?file=01155170030283206312.jpg